<svg width="13" height="7" viewBox="0 0 13 7" fill="none" xmlns="http://www.w3.org/2000/svg">
<path d="M11.81 2.455L9.875 0.499996C9.82852 0.453131 9.77322 0.415934 9.71229 0.39055C9.65136 0.365166 9.58601 0.352097 9.52 0.352097C9.45399 0.352097 9.38864 0.365166 9.32771 0.39055C9.26678 0.415934 9.21148 0.453131 9.165 0.499996C9.07187 0.593677 9.0196 0.720403 9.0196 0.852496C9.0196 0.984589 9.07187 1.11131 9.165 1.205L10.945 3H0.75C0.617392 3 0.490215 3.05267 0.396447 3.14644C0.302678 3.24021 0.25 3.36739 0.25 3.5H0.25C0.25 3.6326 0.302678 3.75978 0.396447 3.85355C0.490215 3.94732 0.617392 4 0.75 4H10.975L9.165 5.805C9.11814 5.85148 9.08094 5.90678 9.05555 5.96771C9.03017 6.02864 9.0171 6.09399 9.0171 6.16C9.0171 6.226 9.03017 6.29135 9.05555 6.35228C9.08094 6.41321 9.11814 6.46851 9.165 6.515C9.21148 6.56186 9.26678 6.59906 9.32771 6.62444C9.38864 6.64983 9.45399 6.66289 9.52 6.66289C9.58601 6.66289 9.65136 6.64983 9.71229 6.62444C9.77322 6.59906 9.82852 6.56186 9.875 6.515L11.81 4.575C12.0909 4.29374 12.2487 3.9125 12.2487 3.515C12.2487 3.11749 12.0909 2.73625 11.81 2.455Z" fill="white"/>
</svg>
