<svg width="12" height="11" viewBox="0 0 12 11" fill="none" xmlns="http://www.w3.org/2000/svg">
<path d="M0.999768 4H10.4998M4.74977 1L3.74977 4L5.74977 9.75L7.74977 4L6.74977 1M6.05706 9.63125L10.5364 4.25607C10.6123 4.16498 10.6502 4.11943 10.6648 4.06858C10.6775 4.02375 10.6775 3.97624 10.6648 3.93142C10.6502 3.88057 10.6123 3.83502 10.5364 3.74393L8.36971 1.14393C8.32562 1.09102 8.30358 1.06457 8.27655 1.04555C8.25261 1.0287 8.2259 1.01619 8.19763 1.00858C8.16572 1 8.13128 1 8.06242 1H3.43712C3.36825 1 3.33382 1 3.30191 1.00858C3.27364 1.01619 3.24692 1.0287 3.22298 1.04555C3.19596 1.06457 3.17392 1.09102 3.12983 1.14393L0.963163 3.74393C0.887249 3.83502 0.849291 3.88057 0.834787 3.93142C0.821998 3.97624 0.821998 4.02375 0.834787 4.06858C0.849291 4.11943 0.887249 4.16498 0.963163 4.25607L5.44248 9.63125C5.54801 9.75789 5.60077 9.8212 5.66394 9.84429C5.71937 9.86455 5.78017 9.86455 5.83559 9.84429C5.89876 9.8212 5.95153 9.75789 6.05706 9.63125Z" stroke="#6F4FF2" stroke-linecap="round" stroke-linejoin="round"/>
</svg>
